<?xml version="1.0" encoding="UTF-8"?>
<svg id="Logo" xmlns="http://www.w3.org/2000/svg" version="1.1" viewBox="0 0 453.14 512">
  <!-- Generator: Adobe Illustrator 29.6.1, SVG Export Plug-In . SVG Version: 2.1.1 Build 9)  -->
  <defs>
    <style>
      .st0 {
        fill: #4f9300;
      }

      .st1 {
        fill: #a0d700;
      }
    </style>
  </defs>
  <path class="st0" d="M0,256c0-38.78,6.84-73.93,20.53-105.41,13.69-31.49,32.4-58.41,56.13-80.77,23.72-22.35,51.68-39.58,83.85-51.68C192.68,6.05,227.02,0,263.53,0s72.78,6.05,106.1,18.14c33.3,12.1,61.14,28.41,83.51,48.94l-99.94,120.47c-9.13-11.86-20.53-20.88-34.22-27.04-13.69-6.16-28.98-9.24-45.86-9.24-13.69,0-26.47,2.4-38.33,7.19-11.87,4.79-22.25,11.75-31.14,20.88-8.9,9.13-15.86,20.19-20.88,33.2-5.03,13.01-7.53,27.5-7.53,43.47s2.62,30.24,7.87,42.78c5.24,12.56,12.32,23.39,21.22,32.51,8.9,9.13,19.27,16.09,31.14,20.88,11.86,4.79,24.41,7.19,37.65,7.19,18.71,0,34.79-3.87,48.26-11.64,13.45-7.75,24.06-16.88,31.83-27.38l99.94,119.79c-21.9,21.9-48.84,39.36-80.77,52.36-31.95,13.01-68.23,19.51-108.84,19.51-36.51,0-70.85-6.16-103.02-18.48-32.17-12.32-60.13-29.78-83.85-52.36-23.73-22.59-42.44-49.51-56.13-80.77C6.84,329.13,0,294.33,0,256Z"/>
  <circle class="st1" cx="226.57" cy="256" r="92.75"/>
</svg>