<?xml version="1.0" encoding="UTF-8"?>
<svg id="Logo" xmlns="http://www.w3.org/2000/svg" version="1.1" viewBox="0 0 1116.62 512">
  <!-- Generator: Adobe Illustrator 29.6.1, SVG Export Plug-In . SVG Version: 2.1.1 Build 9)  -->
  <defs>
    <style>
      .st0 {
        fill: #4f9300;
      }

      .st1 {
        fill: #a0d700;
      }
    </style>
  </defs>
  <g>
    <path class="st0" d="M0,256c0-38.78,6.84-73.93,20.53-105.41,13.69-31.49,32.4-58.41,56.13-80.77,23.72-22.35,51.68-39.58,83.85-51.68C192.68,6.05,227.02,0,263.53,0s72.78,6.05,106.1,18.14c33.3,12.1,61.14,28.41,83.51,48.94l-99.94,120.47c-9.13-11.86-20.53-20.88-34.22-27.04-13.69-6.16-28.98-9.24-45.86-9.24-13.69,0-26.47,2.4-38.33,7.19-11.87,4.79-22.25,11.75-31.14,20.88-8.9,9.13-15.86,20.19-20.88,33.2-5.03,13.01-7.53,27.5-7.53,43.47s2.62,30.24,7.87,42.78c5.24,12.56,12.32,23.39,21.22,32.51,8.9,9.13,19.27,16.09,31.14,20.88,11.86,4.79,24.41,7.19,37.65,7.19,18.71,0,34.79-3.87,48.26-11.64,13.45-7.75,24.06-16.88,31.83-27.38l99.94,119.79c-21.9,21.9-48.84,39.36-80.77,52.36-31.95,13.01-68.23,19.51-108.84,19.51-36.51,0-70.85-6.16-103.02-18.48-32.17-12.32-60.13-29.78-83.85-52.36-23.73-22.59-42.44-49.51-56.13-80.77C6.84,329.13,0,294.33,0,256Z"/>
    <circle class="st1" cx="226.57" cy="256" r="92.75"/>
  </g>
  <g>
    <path class="st0" d="M466.32,143.59c0,4.04-1.44,7.35-4.32,9.94-2.88,2.59-6.05,3.89-9.51,3.89s-6.63-1.3-9.51-3.89c-2.88-2.59-4.32-5.91-4.32-9.94s1.44-7.35,4.32-9.94,6.05-3.89,9.51-3.89,6.63,1.3,9.51,3.89,4.32,5.91,4.32,9.94ZM462.29,330.36h-19.6v-134.89h19.6v134.89Z"/>
    <path class="st0" d="M543.16,199.36c7.97-4.9,16.86-7.35,26.66-7.35,3.65,0,7.44.39,11.39,1.15,3.94.77,7.78,2.26,11.53,4.47,3.75,2.21,7.21,5.14,10.38,8.79,3.17,3.65,5.91,8.36,8.21,14.12,4.61-9.22,10.9-16.29,18.88-21.19,7.97-4.9,17.44-7.35,28.39-7.35,17.1,0,29.93,5.09,38.48,15.28,8.55,10.19,12.83,23.63,12.83,40.35v82.72h-19.6v-74.65c0-14.22-2.64-25.65-7.93-34.3-5.29-8.65-14.27-12.97-26.95-12.97-7.11,0-13.11,1.44-18.01,4.32-4.9,2.88-8.84,6.68-11.82,11.39-2.98,4.71-5.14,10.04-6.49,16-1.35,5.96-2.02,12.11-2.02,18.45v71.77h-19.6v-78.69c0-6.53-.48-12.49-1.44-17.87-.96-5.38-2.64-9.94-5.04-13.69-2.41-3.75-5.72-6.63-9.94-8.65-4.23-2.02-9.61-3.03-16.14-3.03-4.61,0-9.27,1.06-13.98,3.17-4.71,2.12-8.93,5.33-12.68,9.66-3.75,4.32-6.77,9.8-9.08,16.43-2.31,6.63-3.46,14.46-3.46,23.49v69.17h-19.6v-105.2c0-3.65-.1-8.36-.29-14.12-.19-5.76-.48-10.95-.86-15.56h18.73c.38,3.65.67,7.69.86,12.11.19,4.42.29,8.07.29,10.95h.58c3.84-7.88,9.75-14.27,17.73-19.17Z"/>
    <path class="st0" d="M772.27,399.54h-19.6v-204.07h19.6v23.35h.86c5.57-8.84,13.02-15.51,22.34-20.03,9.32-4.51,18.78-6.77,28.39-6.77,10.57,0,20.13,1.83,28.68,5.48,8.55,3.65,15.85,8.65,21.91,14.99,6.05,6.34,10.76,13.83,14.12,22.48,3.36,8.65,5.04,17.97,5.04,27.96s-1.68,19.31-5.04,27.96c-3.36,8.65-8.07,16.14-14.12,22.48-6.05,6.34-13.36,11.34-21.91,14.99-8.55,3.65-18.11,5.48-28.68,5.48-9.61,0-19.07-2.26-28.39-6.77-9.32-4.51-16.77-11-22.34-19.46h-.86v91.94ZM872.87,262.92c0-7.49-1.15-14.56-3.46-21.19-2.31-6.63-5.62-12.39-9.94-17.29-4.32-4.9-9.66-8.79-16-11.67s-13.55-4.32-21.62-4.32c-7.49,0-14.41,1.4-20.75,4.18-6.34,2.79-11.82,6.63-16.43,11.53-4.61,4.9-8.21,10.66-10.81,17.29-2.59,6.63-3.89,13.79-3.89,21.47s1.3,14.84,3.89,21.47c2.59,6.63,6.2,12.35,10.81,17.15,4.61,4.81,10.09,8.6,16.43,11.38,6.34,2.79,13.26,4.18,20.75,4.18,8.07,0,15.28-1.39,21.62-4.18,6.34-2.78,11.67-6.63,16-11.53,4.32-4.9,7.64-10.66,9.94-17.29,2.31-6.63,3.46-13.69,3.46-21.18Z"/>
    <path class="st0" d="M948.38,330.36h-19.6V112.46h19.6v217.9Z"/>
    <path class="st0" d="M1116.62,258.88v4.32c0,1.54-.1,3.17-.29,4.9h-111.83c.19,6.73,1.54,13.07,4.04,19.02,2.49,5.96,5.95,11.15,10.38,15.56,4.42,4.42,9.61,7.93,15.56,10.52,5.95,2.59,12.39,3.89,19.31,3.89,10.18,0,18.97-2.35,26.37-7.06,7.4-4.71,13.02-10.13,16.86-16.28l14.7,11.53c-8.07,10.19-16.96,17.49-26.66,21.91-9.71,4.42-20.13,6.63-31.27,6.63-9.99,0-19.27-1.78-27.81-5.33-8.55-3.55-15.9-8.5-22.05-14.84-6.15-6.34-11-13.83-14.56-22.48-3.56-8.65-5.33-18.06-5.33-28.25s1.73-19.6,5.19-28.25,8.26-16.14,14.41-22.48c6.15-6.34,13.35-11.29,21.62-14.84,8.26-3.55,17.19-5.33,26.81-5.33,10.57,0,19.89,1.78,27.96,5.33,8.07,3.56,14.79,8.36,20.18,14.41,5.38,6.05,9.46,13.11,12.25,21.18,2.78,8.07,4.18,16.72,4.18,25.94ZM1096.73,252.54c-.58-12.68-4.66-23.2-12.25-31.56-7.59-8.36-18.4-12.54-32.42-12.54-6.54,0-12.59,1.2-18.16,3.6-5.58,2.41-10.47,5.67-14.7,9.8-4.23,4.13-7.59,8.84-10.09,14.12-2.5,5.29-3.94,10.81-4.32,16.57h91.94Z"/>
  </g>
</svg>